<?xml version="1.0" standalone="no"?>
<!DOCTYPE svg PUBLIC "-//W3C//DTD SVG 20010904//EN"
 "http://www.w3.org/TR/2001/REC-SVG-20010904/DTD/svg10.dtd">
<svg version="1.0" xmlns="http://www.w3.org/2000/svg"
 width="1500.000000pt" height="1500.000000pt" viewBox="0 0 1500.000000 1500.000000"
 preserveAspectRatio="xMidYMid meet">
<metadata>
Created by potrace 1.16, written by Peter Selinger 2001-2019
</metadata>
<g transform="translate(0.000000,1500.000000) scale(0.100000,-0.100000)"
fill="#000000" stroke="none">
<path d="M0 7500 l0 -7500 7500 0 7500 0 0 7500 0 7500 -7500 0 -7500 0 0
-7500z m12478 1735 c69 -21 129 -69 166 -135 27 -48 31 -64 31 -130 0 -61 -5
-84 -27 -125 -69 -132 -211 -188 -350 -138 l-46 16 -179 -158 c-98 -87 -242
-215 -320 -284 -125 -111 -143 -130 -143 -157 0 -91 -63 -195 -144 -236 -56
-29 -167 -36 -233 -14 -110 37 -178 136 -178 261 l0 71 -265 236 -265 236 -43
-45 c-109 -113 -275 -118 -395 -13 l-38 33 -22 -20 c-12 -11 -119 -105 -237
-208 -118 -104 -249 -220 -291 -258 l-76 -68 15 -42 c43 -124 -14 -270 -131
-337 -45 -26 -62 -30 -128 -30 -61 0 -85 5 -127 26 -67 33 -135 109 -152 169
-37 132 48 302 175 351 57 21 153 15 215 -15 24 -11 48 -21 52 -21 5 0 155
129 333 286 l325 287 0 58 c0 76 47 169 108 216 173 132 421 27 450 -190 l7
-53 274 -243 273 -243 27 26 c76 73 213 92 314 43 30 -15 70 -44 87 -63 28
-32 33 -35 48 -22 24 21 544 479 560 493 12 10 11 18 -2 43 -8 16 -20 51 -26
78 -29 128 68 285 197 320 65 17 100 17 161 -1z m-5278 -1885 l0 -771 25 -24
c19 -20 34 -25 75 -25 l50 0 0 -159 0 -159 -85 -7 c-47 -4 -139 -6 -203 -3
-99 3 -126 8 -172 30 -67 30 -106 68 -134 128 -21 44 -21 55 -24 903 l-2 857
235 0 235 0 0 -770z m-995 260 c244 -77 403 -242 466 -485 29 -113 29 -308 0
-419 -35 -132 -84 -220 -176 -312 -90 -91 -194 -150 -320 -181 -99 -24 -354
-24 -445 0 -89 24 -193 75 -265 130 -308 234 -342 783 -68 1088 78 87 233 167
384 199 24 5 114 7 199 6 125 -3 168 -8 225 -26z m2239 14 c194 -50 345 -199
411 -406 44 -140 51 -346 16 -500 -32 -141 -110 -279 -209 -369 -66 -61 -206
-131 -296 -148 -122 -23 -298 -8 -402 34 -30 12 -49 31 -81 83 l-42 67 -1
-332 0 -333 -235 0 -235 0 0 945 0 945 233 -2 232 -3 3 -94 3 -95 36 55 c69
104 101 126 231 154 84 19 262 18 336 -1z m2144 1 c83 -20 134 -47 194 -103
64 -60 93 -110 119 -208 20 -75 21 -105 23 -584 l1 -505 -231 -3 -231 -2 -6
457 c-4 278 -10 472 -17 494 -27 92 -85 139 -183 146 -51 4 -71 1 -104 -15
-83 -43 -133 -138 -153 -292 -5 -41 -10 -236 -10 -433 l0 -357 -232 2 -233 3
0 690 0 690 233 3 232 2 0 -106 0 -107 63 84 c67 90 111 121 212 145 71 17
248 17 323 -1z m-6238 -342 c50 -181 114 -404 140 -498 27 -93 51 -163 54
-155 4 8 66 231 140 495 l133 480 257 3 c141 1 256 0 256 -3 0 -9 -521 -1327
-537 -1357 l-14 -28 -247 0 -248 0 -272 688 c-150 379 -272 692 -272 695 0 4
116 7 259 7 l258 0 93 -327z m5055 -368 l0 -690 -232 -3 -233 -2 0 695 0 695
233 -2 232 -3 0 -690z m-295 -982 l0 -76 21 19 c16 14 36 19 79 19 66 0 101
-23 126 -82 30 -70 4 -183 -50 -218 -39 -26 -106 -30 -144 -11 -18 9 -32 12
-32 6 0 -5 -11 -10 -25 -10 l-25 0 0 215 0 215 25 0 c24 0 25 -2 25 -77z m800
-138 l0 -215 -25 0 c-17 0 -25 6 -25 17 0 15 -2 14 -20 -2 -10 -9 -39 -20 -63
-22 -94 -11 -157 53 -157 159 0 65 24 115 69 145 51 34 137 28 163 -11 4 -6 8
24 8 67 0 75 0 77 25 77 l25 0 0 -215z m-1019 79 c30 -27 47 -64 51 -110 l3
-39 -119 -3 -118 -3 6 -27 c22 -91 125 -117 169 -42 18 30 57 42 57 16 0 -20
-38 -65 -70 -81 -65 -34 -153 -7 -186 56 -23 46 -22 138 2 180 32 55 80 82
137 76 27 -2 56 -12 68 -23z m1340 10 c35 -18 68 -82 69 -131 l0 -33 -115 0
c-109 0 -115 -1 -115 -20 0 -36 28 -77 61 -89 40 -14 94 7 111 43 13 31 62 38
51 9 -24 -66 -77 -99 -149 -90 -106 11 -157 137 -101 247 36 72 119 100 188
64z m-2001 -119 c19 -68 37 -121 41 -117 4 4 21 60 39 125 31 112 33 117 59
117 26 0 28 -5 61 -125 18 -69 37 -122 40 -118 4 5 22 61 40 126 30 105 35
117 56 117 l22 0 -25 -82 c-14 -46 -36 -114 -48 -153 -19 -61 -25 -70 -48 -73
-24 -3 -27 1 -42 55 -37 131 -56 193 -59 193 -1 0 -18 -56 -36 -125 -33 -120
-35 -125 -60 -125 -25 0 -29 7 -73 148 -26 81 -47 150 -47 155 0 4 10 7 23 7
20 0 26 -12 57 -125z m2247 -11 l50 -137 49 137 c43 119 52 136 71 136 l23 0
-20 -52 c-89 -240 -96 -253 -125 -253 -29 0 -36 13 -125 253 l-20 52 24 0 c21
0 28 -14 73 -136z"/>
<path d="M12347 9115 c-92 -32 -131 -120 -93 -208 61 -142 264 -120 299 33 13
56 -28 141 -83 170 -32 16 -86 19 -123 5z"/>
<path d="M10255 8980 c-135 -28 -178 -175 -80 -270 30 -29 43 -34 92 -37 90
-6 147 39 164 130 18 101 -77 197 -176 177z"/>
<path d="M11231 8255 c-69 -63 -77 -154 -20 -220 39 -44 78 -59 141 -53 44 5
57 11 89 46 65 69 63 155 -6 222 -31 30 -43 35 -99 38 -62 4 -65 3 -105 -33z"/>
<path d="M5875 7310 c-75 -23 -137 -106 -166 -220 -18 -70 -18 -277 0 -350 40
-162 131 -239 266 -228 138 12 215 116 234 316 10 98 -1 232 -24 305 -22 70
-74 139 -121 162 -44 21 -144 29 -189 15z"/>
<path d="M8040 7311 c-152 -49 -206 -170 -198 -438 3 -125 6 -144 31 -198 48
-104 114 -153 217 -162 118 -11 217 43 269 146 41 81 54 161 49 293 -10 233
-103 357 -272 364 -39 2 -82 0 -96 -5z"/>
<path d="M9139 5841 c-20 -16 -24 -30 -27 -94 -5 -86 6 -113 51 -132 44 -18
82 -8 113 28 24 28 26 37 22 98 -3 55 -8 73 -28 94 -30 32 -96 35 -131 6z"/>
<path d="M9697 5831 c-42 -50 -44 -141 -4 -193 38 -48 125 -41 152 12 19 37
19 133 0 169 -17 33 -33 41 -85 41 -30 0 -44 -6 -63 -29z"/>
<path d="M8757 5849 c-16 -9 -47 -65 -47 -84 0 -3 43 -5 95 -5 79 0 95 3 95
15 0 25 -27 72 -45 79 -25 9 -78 7 -98 -5z"/>
<path d="M10096 5829 c-14 -17 -26 -39 -26 -50 0 -17 8 -19 94 -19 l95 0 -9
31 c-15 51 -38 69 -86 69 -35 0 -47 -5 -68 -31z"/>
</g>
</svg>
